# Blender v2.76 (sub 0) OBJ File: 'torch.blend'
# www.blender.org
mtllib torch.mtl
o ShapeIndexedFaceSet.001_ShapeIndexedFaceSet
v 0.296466 -0.912430 -5.528263
v -0.296467 -0.912430 -5.528263
v -0.776160 -0.563912 -5.528262
v 0.959382 -0.000001 -5.528263
v -0.959387 -0.000001 -5.528262
v -0.776160 0.563915 -5.528262
v -0.296467 0.912428 -5.528262
v 0.296466 0.912433 -5.528263
v 0.776155 0.563915 -5.528263
v 0.776160 -0.563912 -5.528263
vt 0.975500 0.654500
vt 0.975500 0.345500
vt 0.793900 0.095500
vt 0.500000 1.000000
vt 0.500000 0.000000
vt 0.206100 0.095500
vt 0.024500 0.345500
vt 0.024500 0.654500
vt 0.206100 0.904500
vt 0.793900 0.904500
vn -0.000000 0.000000 -1.000000
usemtl Shape.003
s 1
f 1/1/1 2/2/1 3/3/1 4/4/1
f 3/3/1 5/5/1 6/6/1 4/4/1
f 6/6/1 7/7/1 8/8/1 4/4/1
f 8/8/1 9/9/1 4/4/1
f 10/10/1 1/1/1 4/4/1
o ShapeIndexedFaceSet_ShapeIndexedFaceSet.001
v 0.778593 -0.000001 0.311319
v 0.629897 0.457648 0.311319
v 0.550067 0.399646 0.511212
v 0.679923 -0.000001 0.511212
v 0.240599 0.740485 0.311319
v 0.210109 0.646642 0.511212
v -0.240600 0.740485 0.311319
v -0.210105 0.646642 0.511212
v -0.629893 0.457648 0.311319
v -0.550067 0.399646 0.511212
v -0.778594 -0.000001 0.311319
v -0.679919 -0.000001 0.511212
v -0.629893 -0.457646 0.311319
v -0.550067 -0.399648 0.511212
v -0.240600 -0.740487 0.311319
v -0.210105 -0.646644 0.511212
v 0.240599 -0.740487 0.311319
v 0.210109 -0.646644 0.511212
v 0.629897 -0.457646 0.311319
v 0.550067 -0.399648 0.511212
v 0.778591 -0.000001 -4.478928
v 0.629895 0.457648 -4.478928
v 0.629895 -0.457646 -4.478928
v 0.240597 -0.740487 -4.478928
v -0.240601 -0.740487 -4.478928
v -0.629895 -0.457646 -4.478927
v -0.778596 -0.000001 -4.478927
v -0.629895 0.457648 -4.478927
v -0.240601 0.740485 -4.478928
v 0.240597 0.740485 -4.478928
v 1.062020 -0.000001 -4.799784
v 0.859194 0.624241 -4.799784
v 0.859194 -0.624238 -4.799784
v 0.328181 -1.010042 -4.799784
v -0.328182 -1.010042 -4.799784
v -0.859194 -0.624238 -4.799783
v -1.062020 -0.000001 -4.799783
v -0.859194 0.624241 -4.799783
v -0.328182 1.010041 -4.799784
v 0.328181 1.010045 -4.799784
v 1.062020 -0.000001 -5.566223
v 0.859194 0.624241 -5.566223
v 0.859194 -0.624238 -5.566223
v 0.328181 -1.010042 -5.566223
v -0.328182 -1.010042 -5.566223
v -0.859194 -0.624238 -5.566223
v -1.062020 -0.000001 -5.566222
v -0.859194 0.624241 -5.566222
v -0.328182 1.010041 -5.566223
v 0.328181 1.010045 -5.566223
v 1.014501 -0.000001 -5.566223
v 0.820750 0.596313 -5.566223
v 0.820750 -0.596310 -5.566223
v 0.313499 -0.964851 -5.566223
v -0.313499 -0.964851 -5.566223
v -0.820755 -0.596310 -5.566223
v -1.014507 -0.000001 -5.566222
v -0.820755 0.596313 -5.566223
v -0.313499 0.964850 -5.566223
v 0.313499 0.964854 -5.566223
v 0.959382 -0.000001 -5.528263
v 0.776155 0.563915 -5.528263
v 0.776160 -0.563912 -5.528263
v 0.296466 -0.912430 -5.528263
v -0.296467 -0.912430 -5.528263
v -0.776160 -0.563912 -5.528262
v -0.959387 -0.000001 -5.528262
v -0.776160 0.563915 -5.528262
v -0.296467 0.912428 -5.528262
v 0.296466 0.912433 -5.528263
vt 0.750000 0.000000
vt 0.850000 0.000000
vt 0.850000 1.000000
vt 0.750000 1.000000
vt 0.950000 0.000000
vt 0.950000 1.000000
vt 1.050000 0.000000
vt 1.050000 1.000000
vt 0.050000 0.000000
vt 0.150000 0.000000
vt 0.150000 1.000000
vt 0.050000 1.000000
vt 0.250000 0.000000
vt 0.250000 1.000000
vt 0.350000 0.000000
vt 0.350000 1.000000
vt 0.450000 0.000000
vt 0.450000 1.000000
vt 0.550000 0.000000
vt 0.550000 1.000000
vt 0.650000 0.000000
vt 0.650000 1.000000
vt 0.206100 0.904500
vt 0.024500 0.654500
vt 0.024500 0.345500
vt 0.793900 0.904500
vt 0.206100 0.095500
vt 0.500000 0.000000
vt 0.793900 0.095500
vt 0.975500 0.345500
vt 0.975500 0.654500
vt 0.500000 1.000000
vn 0.860900 0.279700 0.425000
vn 0.532100 0.732300 0.425000
vn 0.000000 0.905200 0.425000
vn -0.532100 0.732300 0.425000
vn -0.860900 0.279700 0.425000
vn -0.860900 -0.279700 0.425000
vn -0.532100 -0.732300 0.425000
vn 0.000000 -0.905200 0.425000
vn 0.532100 -0.732300 0.425000
vn 0.860900 -0.279700 0.425000
vn 0.000000 0.000000 1.000000
vn 0.951100 0.309000 -0.000000
vn 0.951100 -0.309000 -0.000000
vn 0.587800 -0.809000 -0.000000
vn 0.000000 -1.000000 -0.000000
vn -0.587800 -0.809000 0.000000
vn -0.951100 -0.309000 0.000000
vn -0.951100 0.309000 0.000000
vn -0.587800 0.809000 0.000000
vn 0.000000 1.000000 0.000000
vn 0.587800 0.809000 -0.000000
vn 0.728200 0.236600 0.643200
vn 0.728200 -0.236600 0.643200
vn 0.450000 -0.619400 0.643200
vn 0.000000 -0.765700 0.643200
vn -0.450000 -0.619400 0.643200
vn -0.728200 -0.236600 0.643200
vn -0.728200 0.236600 0.643200
vn -0.450000 0.619400 0.643200
vn -0.000000 0.765700 0.643200
vn 0.450000 0.619400 0.643200
vn 0.000000 0.000000 -1.000000
vn -0.557800 -0.181200 -0.809900
vn -0.557800 0.181200 -0.809900
vn -0.344700 0.474500 -0.809900
vn 0.000000 0.586500 -0.809900
vn 0.344700 0.474500 -0.809900
vn 0.557800 0.181200 -0.810000
vn 0.557800 -0.181200 -0.809900
vn 0.344700 -0.474500 -0.809900
vn 0.000000 -0.586500 -0.809900
vn -0.344700 -0.474500 -0.809900
usemtl Shape.002
s 1
f 11/11/2 12/12/2 13/13/2 14/14/2
f 12/12/3 15/15/3 16/16/3 13/13/3
f 15/15/4 17/17/4 18/18/4 16/16/4
f 17/19/5 19/20/5 20/21/5 18/22/5
f 19/20/6 21/23/6 22/24/6 20/21/6
f 21/23/7 23/25/7 24/26/7 22/24/7
f 23/25/8 25/27/8 26/28/8 24/26/8
f 25/27/9 27/29/9 28/30/9 26/28/9
f 27/29/10 29/31/10 30/32/10 28/30/10
f 29/31/11 11/11/11 14/14/11 30/32/11
f 13/33/12 16/34/12 18/35/12 30/36/12
f 18/35/12 20/37/12 22/38/12 30/36/12
f 22/38/12 24/39/12 26/40/12 30/36/12
f 26/40/12 28/41/12 30/36/12
f 14/42/12 13/33/12 30/36/12
f 12/12/13 11/11/13 31/42/13 32/33/13
f 11/11/14 29/31/14 33/36/14 31/42/14
f 29/31/15 27/29/15 34/41/15 33/36/15
f 27/29/16 25/27/16 35/40/16 34/41/16
f 25/27/17 23/25/17 36/39/17 35/40/17
f 23/25/18 21/23/18 37/38/18 36/39/18
f 21/23/19 19/20/19 38/37/19 37/38/19
f 19/20/20 17/19/20 39/35/20 38/37/20
f 17/17/21 15/15/21 40/34/21 39/35/21
f 15/15/22 12/12/22 32/33/22 40/34/22
f 32/33/23 31/42/23 41/42/23 42/33/23
f 31/42/24 33/36/24 43/36/24 41/42/24
f 33/36/25 34/41/25 44/41/25 43/36/25
f 34/41/26 35/40/26 45/40/26 44/41/26
f 35/40/27 36/39/27 46/39/27 45/40/27
f 36/39/28 37/38/28 47/38/28 46/39/28
f 37/38/29 38/37/29 48/37/29 47/38/29
f 38/37/30 39/35/30 49/35/30 48/37/30
f 39/35/31 40/34/31 50/34/31 49/35/31
f 40/34/32 32/33/32 42/33/32 50/34/32
f 42/33/13 41/42/13 51/42/13 52/33/13
f 41/42/14 43/36/14 53/36/14 51/42/14
f 43/36/15 44/41/15 54/41/15 53/36/15
f 44/41/16 45/40/16 55/40/16 54/41/16
f 45/40/17 46/39/17 56/39/17 55/40/17
f 46/39/18 47/38/18 57/38/18 56/39/18
f 47/38/19 48/37/19 58/37/19 57/38/19
f 48/37/20 49/35/20 59/35/20 58/37/20
f 49/35/21 50/34/21 60/34/21 59/35/21
f 50/34/22 42/33/22 52/33/22 60/34/22
f 52/33/33 51/42/33 61/42/33 62/33/33
f 51/42/33 53/36/33 63/36/33 61/42/33
f 53/36/33 54/41/33 64/41/33 63/36/33
f 54/41/33 55/40/33 65/40/33 64/41/33
f 55/40/33 56/39/33 66/39/33 65/40/33
f 56/39/33 57/38/33 67/38/33 66/39/33
f 57/38/33 58/37/33 68/37/33 67/38/33
f 58/37/33 59/35/33 69/35/33 68/37/33
f 59/35/33 60/34/33 70/34/33 69/35/33
f 60/34/33 52/33/33 62/33/33 70/34/33
f 62/33/34 61/42/34 71/42/34 72/33/34
f 61/42/35 63/36/35 73/36/35 71/42/35
f 63/36/36 64/41/36 74/41/36 73/36/36
f 64/41/37 65/40/37 75/40/37 74/41/37
f 65/40/38 66/39/38 76/39/38 75/40/38
f 66/39/39 67/38/39 77/38/39 76/39/39
f 67/38/40 68/37/40 78/37/40 77/38/40
f 68/37/41 69/35/41 79/35/41 78/37/41
f 69/35/42 70/34/42 80/34/42 79/35/42
f 70/34/43 62/33/43 72/33/43 80/34/43
