# Blender v2.77 (sub 0) OBJ File: 'level1.blend'
# www.blender.org
mtllib level1.mtl
o Plane
v 28.621504 5.358318 -28.531462
v -28.534346 5.358318 -28.531462
v 28.621504 5.358318 28.624388
v -28.534346 5.358318 28.624388
v 28.621504 5.358318 22.908802
v 28.621504 5.358318 17.193218
v 28.621504 5.358318 11.477633
v 28.621504 5.358318 5.762048
v 28.621504 5.358318 0.046463
v 28.621504 5.358318 -5.669122
v 28.621504 5.358318 -11.384706
v 28.621504 5.358318 -17.100292
v 28.621504 5.358318 -22.815876
v 22.905918 5.358318 -28.531462
v 17.190334 5.358318 -28.531462
v 11.474750 5.358318 -28.531462
v 5.759164 5.358318 -28.531462
v 0.043579 5.358318 -28.531462
v -5.672006 5.358318 -28.531462
v -11.387590 5.358318 -28.531462
v -17.103176 5.358318 -28.531462
v -22.818760 5.358318 -28.531462
v -28.534346 5.358318 -22.815876
v -28.534346 5.358318 -17.100292
v -28.534346 5.358318 -11.384707
v -28.534346 5.358318 -5.669122
v -28.534346 5.358318 0.046463
v -28.534346 5.358318 5.762048
v -28.534346 5.358318 11.477633
v -28.534346 5.358318 17.193218
v -28.534346 5.358318 22.908802
v -22.818760 5.358318 28.624388
v -17.103176 5.358318 28.624388
v -11.387591 5.358318 28.624388
v -5.672006 5.358318 28.624388
v 0.043579 5.358318 28.624388
v 5.759164 5.358318 28.624388
v 11.474749 5.358318 28.624388
v 17.190334 5.358318 28.624388
v 22.905918 5.358318 28.624388
v 22.905918 5.358318 -17.100292
v 22.905918 5.358318 -11.384707
v 22.905918 5.358318 -5.669122
v 22.905918 5.358318 0.046463
v 22.905918 5.358318 5.762048
v 22.905918 5.358318 22.908802
v 17.190334 5.358318 -17.100292
v 17.190334 5.358318 -11.384707
v 17.190334 5.358318 -5.669122
v 17.190334 5.358318 0.046463
v 17.190334 5.358318 5.762048
v 17.190334 5.358318 11.477633
v 17.190334 5.358318 17.193218
v 17.190334 5.358318 22.908802
v 11.474750 5.358318 -17.100292
v 11.474750 5.358318 -11.384707
v 11.474750 5.358318 -5.669122
v 11.474750 5.358318 0.046463
v 11.474750 5.358318 5.762048
v 11.474750 5.358318 11.477633
v 11.474750 5.358318 17.193218
v 11.474749 5.358318 22.908802
v 5.759164 5.358318 -22.815876
v 5.759164 5.358318 -17.100292
v 5.759164 5.358318 -11.384707
v 5.759164 5.358318 -5.669122
v 5.759164 5.358318 0.046463
v 5.759164 5.358318 5.762048
v 5.759164 5.358318 22.908802
v 0.043579 5.358318 -22.815876
v 0.043579 5.358318 -17.100292
v 0.043579 5.358318 -11.384707
v 0.043579 5.358318 -5.669122
v 0.043579 5.358318 0.046463
v 0.043579 5.358318 5.762048
v 0.043579 5.358318 22.908802
v -5.672006 5.358318 -22.815876
v -5.672006 5.358318 -17.100292
v -5.672006 5.358318 -11.384707
v -5.672006 5.358318 -5.669122
v -5.672006 5.358318 0.046463
v -5.672006 5.358318 5.762048
v -5.672006 5.358318 11.477633
v -5.672006 5.358318 17.193218
v -5.672006 5.358318 22.908802
v -11.387590 5.358318 -5.669122
v -11.387590 5.358318 0.046463
v -11.387590 5.358318 5.762048
v -11.387590 5.358318 11.477633
v -11.387590 5.358318 17.193218
v -11.387590 5.358318 22.908802
v -17.103176 5.358318 -5.669122
v -17.103176 5.358318 0.046463
v -17.103176 5.358318 5.762048
v -17.103176 5.358318 11.477633
v -22.818760 5.358318 -5.669122
v -22.818760 5.358318 0.046463
v -22.818760 5.358318 5.762048
v -22.818760 5.358318 11.477633
v 28.621504 -0.009254 -22.815876
v 28.621504 -0.009254 -28.531462
v -22.818760 -0.009254 -28.531462
v -28.534346 -0.009254 -28.531462
v -28.534346 -0.009254 22.908802
v -28.534346 -0.009254 28.624388
v 28.621504 -0.009254 22.908802
v 28.621504 -0.009254 17.193218
v 28.621504 -0.009254 11.477633
v 28.621504 -0.009254 5.762048
v 28.621504 -0.009254 -17.100292
v 22.905918 -0.009254 -28.531462
v 17.190334 -0.009254 -28.531462
v 11.474750 -0.009254 -28.531462
v 5.759164 -0.009254 -28.531462
v -5.672006 -0.009254 -28.531462
v -11.387590 -0.009254 -28.531462
v -17.103176 -0.009254 -28.531462
v -28.534346 -0.009254 -22.815876
v -28.534346 -0.009254 -17.100292
v -28.534346 -0.009254 -11.384707
v -28.534346 -0.009254 -5.669122
v -28.534346 -0.009254 11.477633
v -28.534346 -0.009254 17.193218
v -22.818760 -0.009254 28.624388
v -17.103176 -0.009254 28.624388
v -11.387591 -0.009254 28.624388
v 22.905918 -0.009254 -22.815876
v 22.905918 -0.009254 -17.100292
v 22.905918 -0.009254 5.762048
v 22.905918 -0.009254 11.477633
v 22.905918 -0.009254 17.193218
v 22.905918 -0.009254 22.908802
v 17.190334 -0.009254 -22.815876
v 17.190334 -0.009254 -17.100292
v 17.190334 -0.009254 -11.384707
v 17.190334 -0.009254 -5.669122
v 17.190334 -0.009254 0.046463
v 17.190334 -0.009254 5.762048
v 17.190334 -0.009254 11.477633
v 17.190334 -0.009254 17.193218
v 17.190334 -0.009254 22.908802
v 11.474750 -0.009254 -22.815876
v 11.474750 -0.009254 -17.100292
v 11.474750 -0.009254 -11.384707
v 11.474750 -0.009254 -5.669122
v 11.474750 -0.009254 0.046463
v 11.474750 -0.009254 5.762048
v 11.474750 -0.009254 11.477633
v 11.474750 -0.009254 17.193218
v 11.474749 -0.009254 22.908802
v 5.759164 -0.009254 -22.815876
v 5.759164 -0.009254 -17.100292
v 5.759164 -0.009254 -11.384707
v 5.759164 -0.009254 -5.669122
v 5.759164 -0.009254 0.046463
v 5.759164 -0.009254 5.762048
v 5.759164 -0.009254 11.477633
v 5.759164 -0.009254 17.193218
v 5.759164 -0.009254 22.908802
v 0.043579 -0.009254 -11.384707
v 0.043579 -0.009254 -5.669122
v 0.043579 -0.009254 0.046463
v 0.043579 -0.009254 5.762048
v 0.043579 -0.009254 11.477633
v 0.043579 -0.009254 17.193218
v 0.043579 -0.009254 22.908802
v -5.672006 -0.009254 -22.815876
v -5.672006 -0.009254 -17.100292
v -5.672006 -0.009254 -11.384707
v -5.672006 -0.009254 -5.669122
v -5.672006 -0.009254 5.762048
v -5.672006 -0.009254 11.477633
v -5.672006 -0.009254 17.193218
v -5.672006 -0.009254 22.908802
v -11.387590 -0.009254 22.908802
v -11.387590 -0.009254 -22.815876
v -11.387590 -0.009254 -17.100292
v -11.387590 -0.009254 -11.384707
v -11.387590 -0.009254 -5.669122
v -11.387590 -0.009254 11.477633
v -11.387590 -0.009254 17.193218
v -17.103176 -0.009254 22.908802
v -17.103176 -0.009254 -22.815876
v -17.103176 -0.009254 -17.100292
v -17.103176 -0.009254 -11.384707
v -17.103176 -0.009254 -5.669122
v -17.103176 -0.009254 11.477633
v -17.103176 -0.009254 17.193218
v -22.818760 -0.009254 22.908802
v -22.818760 -0.009254 -22.815876
v -22.818760 -0.009254 -17.100292
v -22.818760 -0.009254 -11.384707
v -22.818760 -0.009254 -5.669122
v -22.818760 -0.009254 11.477633
v -22.818760 -0.009254 17.193218
v 17.190334 5.358318 -17.100292
v 17.190334 5.358318 -17.100292
v 17.190334 5.358318 -11.384707
v 17.190334 5.358318 -5.669122
v 17.190334 5.358318 0.046463
v 17.190334 5.358318 0.046463
v 17.190334 5.358318 11.477633
v 17.190334 5.358318 11.477633
v 17.190334 5.358318 17.193218
v 17.190334 5.358318 22.908802
v 17.190334 5.358318 22.908802
v 11.474750 5.358318 -17.100292
v 11.474750 5.358318 -17.100292
v 11.474750 5.358318 -11.384707
v 11.474750 5.358318 -5.669122
v 11.474750 5.358318 -5.669122
v 11.474750 5.358318 11.477633
v 11.474750 5.358318 11.477633
v 11.474750 5.358318 17.193218
v 11.474749 5.358318 22.908802
v 11.474749 5.358318 22.908802
v 5.759164 5.358318 -28.531462
v 5.759164 5.358318 -28.531462
v 5.759164 5.358318 -22.815876
v 5.759164 5.358318 -17.100292
v 5.759164 5.358318 -17.100292
v 5.759164 5.358318 -11.384707
v 5.759164 5.358318 -11.384707
v 5.759164 5.358318 -5.669122
v 5.759164 5.358318 -5.669122
v 11.474749 -0.009254 22.908802
v 11.474749 -0.009254 22.908802
v 5.759164 5.358318 0.046463
v 5.759164 5.358318 0.046463
v 5.759164 5.358318 5.762048
v 5.759164 5.358318 5.762048
v 17.190334 -0.009254 22.908802
v 17.190334 -0.009254 22.908802
v 0.043579 5.358318 -5.669122
v 0.043579 5.358318 -5.669122
v 0.043579 5.358318 0.046463
v 0.043579 5.358318 5.762048
v 0.043579 5.358318 5.762048
v 28.621504 -0.009254 22.908802
v 28.621504 -0.009254 22.908802
v 28.621504 5.358318 22.908802
v 28.621504 5.358318 22.908802
v -5.672006 5.358318 -28.531462
v -5.672006 5.358318 -28.531462
v -5.672006 5.358318 -22.815876
v -5.672006 5.358318 -17.100292
v -5.672006 5.358318 -11.384707
v -5.672006 5.358318 -11.384707
v -5.672006 5.358318 5.762048
v -5.672006 5.358318 5.762048
v -5.672006 5.358318 11.477633
v -5.672006 5.358318 17.193218
v -5.672006 5.358318 17.193218
v -11.387590 5.358318 22.908802
v -11.387590 5.358318 22.908802
v -11.387591 5.358318 28.624388
v -11.387591 5.358318 28.624388
v 28.621504 -0.009254 5.762048
v 28.621504 -0.009254 5.762048
v 28.621504 5.358318 5.762048
v 28.621504 5.358318 5.762048
v -11.387590 -0.009254 17.193218
v -11.387590 -0.009254 17.193218
v -11.387590 5.358318 17.193218
v -11.387590 5.358318 17.193218
v -11.387590 5.358318 11.477633
v -11.387590 5.358318 11.477633
v -11.387590 -0.009254 11.477633
v -11.387590 -0.009254 11.477633
v -28.534346 -0.009254 11.477633
v -28.534346 -0.009254 11.477633
v -28.534346 5.358318 11.477633
v -28.534346 5.358318 11.477633
v 11.474750 -0.009254 -5.669122
v 11.474750 -0.009254 -5.669122
v -28.534346 5.358318 28.624388
v -28.534346 -0.009254 28.624388
v -28.534346 -0.009254 28.624388
v 11.474750 -0.009254 -17.100292
v 11.474750 -0.009254 -17.100292
v 17.190334 -0.009254 -17.100292
v 17.190334 -0.009254 -17.100292
v 28.621504 5.358318 -17.100292
v 28.621504 5.358318 -17.100292
v 28.621504 -0.009254 -17.100292
v 28.621504 -0.009254 -17.100292
v 28.621504 5.358318 -28.531462
v 28.621504 -0.009254 -28.531462
v 28.621504 -0.009254 -28.531462
v -28.534346 5.358318 -5.669122
v -28.534346 5.358318 -5.669122
v -28.534346 -0.009254 -5.669122
v -28.534346 -0.009254 -5.669122
v 22.905918 5.358318 -17.100292
v 22.905918 5.358318 5.762048
v 22.905918 5.358318 22.908802
v 17.190334 5.358318 5.762048
v 5.759164 -0.009254 5.762048
v 5.759164 -0.009254 5.762048
v 5.759164 -0.009254 0.046463
v 5.759164 -0.009254 0.046463
v 11.474750 -0.009254 11.477633
v 11.474750 -0.009254 11.477633
v 17.190334 -0.009254 11.477633
v 17.190334 -0.009254 11.477633
v 0.043579 -0.009254 5.762048
v 0.043579 -0.009254 5.762048
v 11.474750 5.358318 0.046463
v 11.474750 5.358318 5.762048
v -28.534346 -0.009254 -28.531462
v -28.534346 -0.009254 -28.531462
v -28.534346 5.358318 -28.531462
v 5.759164 5.358318 22.908802
v 0.043579 5.358318 -11.384707
v 5.759164 -0.009254 -5.669122
v 5.759164 -0.009254 -5.669122
v 5.759164 -0.009254 -11.384707
v 5.759164 -0.009254 -11.384707
v 0.043579 5.358318 22.908802
v -5.672006 5.358318 -5.669122
v -11.387591 -0.009254 28.624388
v -11.387591 -0.009254 28.624388
v -11.387590 -0.009254 22.908802
v -11.387590 -0.009254 22.908802
v -5.672006 5.358318 22.908802
v 17.190334 -0.009254 0.046463
v 17.190334 -0.009254 0.046463
v -11.387590 5.358318 -5.669122
v 0.043579 -0.009254 -5.669122
v 0.043579 -0.009254 -5.669122
v -17.103176 5.358318 -5.669122
v -17.103176 5.358318 11.477633
v -5.672006 -0.009254 -11.384707
v -5.672006 -0.009254 -11.384707
v 5.759164 -0.009254 -17.100292
v 5.759164 -0.009254 -17.100292
v -5.672006 -0.009254 17.193218
v -5.672006 -0.009254 17.193218
v -5.672006 -0.009254 -28.531462
v -5.672006 -0.009254 -28.531462
v -22.818760 5.358318 -5.669122
v -22.818760 5.358318 11.477633
v 5.759164 -0.009254 -28.531462
v 5.759164 -0.009254 -28.531462
v -5.672006 -0.009254 5.762048
v -5.672006 -0.009254 5.762048
v 28.621504 -0.009254 -22.815876
v -22.818760 -0.009254 -28.531462
v -28.534346 -0.009254 22.908802
v 28.621504 -0.009254 17.193218
v 28.621504 -0.009254 11.477633
v 22.905918 -0.009254 -28.531462
v 17.190334 -0.009254 -28.531462
v 11.474750 -0.009254 -28.531462
v -11.387590 -0.009254 -28.531462
v -17.103176 -0.009254 -28.531462
v -28.534346 -0.009254 -22.815876
v -28.534346 -0.009254 -17.100292
v -28.534346 -0.009254 -11.384707
v -28.534346 -0.009254 17.193218
v -22.818760 -0.009254 28.624388
v -17.103176 -0.009254 28.624388
v 17.190334 -0.009254 -11.384707
v 17.190334 -0.009254 -5.669122
v 17.190334 -0.009254 17.193218
v 11.474750 -0.009254 -11.384707
v 11.474750 -0.009254 17.193218
v 5.759164 -0.009254 -22.815876
v 0.043579 -0.009254 0.046463
v -5.672006 -0.009254 -22.815876
v -5.672006 -0.009254 -17.100292
v -5.672006 -0.009254 11.477633
v 22.905918 -0.009254 -17.100292
v 22.905918 -0.009254 5.762048
v 22.905918 -0.009254 22.908802
v 17.190334 -0.009254 5.762048
v 11.474750 -0.009254 0.046463
v 11.474750 -0.009254 5.762048
v 5.759164 -0.009254 22.908802
v 0.043579 -0.009254 -11.384707
v 0.043579 -0.009254 22.908802
v -5.672006 -0.009254 -5.669122
v -5.672006 -0.009254 22.908802
v -11.387590 -0.009254 -5.669122
v -17.103176 -0.009254 -5.669122
v -17.103176 -0.009254 11.477633
v -22.818760 -0.009254 -5.669122
v -22.818760 -0.009254 11.477633
vn 1.000000 0.000000 0.000000
vn 0.000000 1.000000 0.000000
vn 0.000000 0.000000 -1.000000
vn 0.000000 0.000000 1.000000
vn -1.000000 0.000000 0.000000
usemtl None
s 1
f 207//1 209//1 366//1 279//1
f 241//2 296//2 40//2 3//2
f 296//2 205//2 39//2 40//2
f 205//2 215//2 38//2 39//2
f 215//2 313//2 37//2 38//2
f 313//2 319//2 36//2 37//2
f 319//2 325//2 35//2 36//2
f 325//2 254//2 257//2 35//2
f 197//3 41//3 373//3 281//3
f 255//3 85//3 383//3 323//3
f 69//3 216//3 226//3 379//3
f 253//4 264//4 262//4 337//4
f 283//2 294//2 42//2 11//2
f 11//2 42//2 43//2 10//2
f 10//2 43//2 44//2 9//2
f 9//2 44//2 295//2 261//2
f 236//1 237//1 306//1 369//1
f 99//4 29//4 270//4 388//4
f 46//3 5//3 239//3 375//3
f 7//5 260//5 258//5 351//5
f 33//3 256//3 321//3 362//3
f 294//2 196//2 198//2 42//2
f 42//2 198//2 199//2 43//2
f 43//2 199//2 200//2 44//2
f 44//2 200//2 297//2 295//2
f 204//1 206//1 232//1 365//1
f 234//1 236//1 369//1 329//1
f 6//5 7//5 351//5 350//5
f 32//3 33//3 362//3 361//3
f 202//1 204//1 365//1 304//1
f 242//5 6//5 350//5 240//5
f 4//3 32//3 361//3 277//3
f 59//4 231//4 298//4 378//4
f 200//2 308//2 309//2 297//2
f 26//3 96//3 387//3 292//3
f 203//2 212//2 61//2 53//2
f 53//2 61//2 215//2 205//2
f 8//4 45//4 374//4 259//4
f 30//1 31//1 349//1 360//1
f 208//2 220//2 222//2 56//2
f 56//2 222//2 224//2 210//2
f 229//3 58//3 377//3 300//3
f 308//2 228//2 230//2 309//2
f 328//3 80//3 382//3 384//3
f 265//5 267//5 268//5 263//5
f 273//1 30//1 360//1 271//1
f 218//2 18//2 70//2 219//2
f 219//2 70//2 71//2 220//2
f 220//2 71//2 314//2 222//2
f 211//4 225//4 315//4 274//4
f 201//5 49//5 364//5 326//5
f 31//1 276//1 278//1 349//1
f 49//5 48//5 363//5 364//5
f 22//4 312//4 310//4 348//4
f 221//3 55//3 143//3 335//3
f 18//2 243//2 77//2 70//2
f 70//2 77//2 78//2 71//2
f 71//2 78//2 247//2 314//2
f 48//5 47//5 134//5 363//5
f 235//2 320//2 81//2 74//2
f 74//2 81//2 249//2 238//2
f 41//3 12//3 285//3 373//3
f 13//5 287//5 288//5 347//5
f 85//3 76//3 381//3 383//3
f 25//1 290//1 293//1 359//1
f 95//4 99//4 388//4 386//4
f 24//1 25//1 359//1 358//1
f 68//5 67//5 155//5 299//5
f 320//2 86//2 87//2 81//2
f 81//2 87//2 88//2 249//2
f 249//2 88//2 266//2 251//2
f 251//2 266//2 90//2 252//2
f 23//1 24//1 358//1 357//1
f 213//3 52//3 139//3 302//3
f 75//4 250//4 345//4 163//4
f 2//1 23//1 357//1 311//1
f 51//4 59//4 378//4 376//4
f 86//2 331//2 93//2 87//2
f 87//2 93//2 94//2 88//2
f 88//2 94//2 332//2 266//2
f 66//5 223//5 317//5 316//5
f 96//3 92//3 385//3 387//3
f 34//5 91//5 324//5 322//5
f 21//4 22//4 348//4 356//4
f 58//3 50//3 327//3 377//3
f 80//3 73//3 161//3 382//3
f 331//2 341//2 97//2 93//2
f 93//2 97//2 98//2 94//2
f 94//2 98//2 342//2 332//2
f 20//4 21//4 356//4 355//4
f 72//4 248//4 333//4 380//4
f 63//1 64//1 336//1 368//1
f 83//1 84//1 338//1 372//1
f 244//4 20//4 355//4 339//4
f 17//1 63//1 368//1 343//1
f 341//2 291//2 27//2 97//2
f 97//2 27//2 28//2 98//2
f 98//2 28//2 272//2 342//2
f 82//1 83//1 372//1 346//1
f 76//3 69//3 379//3 381//3
f 189//2 104//2 105//2 124//2
f 175//2 182//2 125//2 126//2
f 182//2 189//2 124//2 125//2
f 289//2 111//2 127//2 100//2
f 100//2 127//2 128//2 286//2
f 109//2 129//2 130//2 108//2
f 108//2 130//2 131//2 107//2
f 107//2 131//2 132//2 106//2
f 111//2 112//2 133//2 127//2
f 127//2 133//2 282//2 128//2
f 129//2 138//2 305//2 130//2
f 130//2 305//2 140//2 131//2
f 131//2 140//2 233//2 132//2
f 112//2 113//2 142//2 133//2
f 133//2 142//2 280//2 282//2
f 282//2 280//2 144//2 135//2
f 135//2 144//2 275//2 136//2
f 136//2 275//2 146//2 137//2
f 138//2 147//2 303//2 305//2
f 113//2 344//2 151//2 142//2
f 142//2 151//2 152//2 280//2
f 275//2 154//2 301//2 146//2
f 147//2 156//2 157//2 303//2
f 303//2 157//2 158//2 149//2
f 149//2 158//2 159//2 227//2
f 318//2 160//2 330//2 154//2
f 154//2 330//2 162//2 301//2
f 301//2 162//2 307//2 156//2
f 156//2 307//2 164//2 157//2
f 157//2 164//2 165//2 158//2
f 158//2 165//2 166//2 159//2
f 160//2 334//2 170//2 330//2
f 307//2 171//2 172//2 164//2
f 164//2 172//2 173//2 165//2
f 165//2 173//2 174//2 166//2
f 340//2 116//2 176//2 167//2
f 167//2 176//2 177//2 168//2
f 168//2 177//2 178//2 334//2
f 334//2 178//2 179//2 170//2
f 173//2 181//2 175//2 174//2
f 116//2 117//2 183//2 176//2
f 176//2 183//2 184//2 177//2
f 177//2 184//2 185//2 178//2
f 178//2 185//2 186//2 179//2
f 269//2 187//2 188//2 181//2
f 181//2 188//2 182//2 175//2
f 117//2 102//2 190//2 183//2
f 183//2 190//2 191//2 184//2
f 184//2 191//2 192//2 185//2
f 185//2 192//2 193//2 186//2
f 187//2 194//2 195//2 188//2
f 188//2 195//2 189//2 182//2
f 102//2 103//2 118//2 190//2
f 190//2 118//2 119//2 191//2
f 191//2 119//2 120//2 192//2
f 192//2 120//2 121//2 193//2
f 194//2 122//2 123//2 195//2
f 195//2 123//2 104//2 189//2
f 65//4 72//4 380//4 153//4
f 209//1 57//1 145//1 366//1
f 284//5 13//5 347//5 110//5
f 245//5 19//5 115//5 370//5
f 92//3 328//3 384//3 385//3
f 1//4 14//4 352//4 101//4
f 45//4 51//4 376//4 374//4
f 246//5 245//5 370//5 371//5
f 14//4 15//4 353//4 352//4
f 79//5 246//5 371//5 169//5
f 15//4 16//4 354//4 353//4
f 89//4 95//4 386//4 180//4
f 214//5 60//5 148//5 367//5
f 16//4 217//4 114//4 354//4
f 54//3 46//3 375//3 141//3
f 62//5 214//5 367//5 150//5
